<svg width="15" height="117" viewBox="0 0 15 117" fill="none" xmlns="http://www.w3.org/2000/svg">
<path d="M6.01357 114.822C8.02714 116.712 11.1914 116.612 13.0811 114.598C14.9708 112.585 14.8704 109.42 12.8568 107.531L6.01357 114.822ZM9.4352 55.9158H14.4352V55.4167L14.3365 54.9275L9.4352 55.9158ZM9.4352 84.1942L14.331 85.2097L14.4352 84.7073V84.1942H9.4352ZM4.4352 55.9158V84.1942H14.4352V55.9158H4.4352ZM9.4352 84.1942C4.53942 83.1786 4.53928 83.1793 4.53913 83.18C4.53905 83.1804 4.53888 83.1812 4.53873 83.182C4.53843 83.1834 4.53806 83.1852 4.53762 83.1873C4.53674 83.1916 4.53557 83.1973 4.53414 83.2043C4.53126 83.2182 4.52729 83.2376 4.52228 83.2623C4.51225 83.3116 4.49804 83.3819 4.4801 83.472C4.44421 83.6521 4.39332 83.9115 4.3309 84.2401C4.20613 84.8968 4.03485 85.8324 3.84502 86.9662C3.4668 89.2252 3.00817 92.3112 2.70053 95.5661C2.39648 98.783 2.22133 102.349 2.47477 105.506C2.60144 107.084 2.84661 108.719 3.3122 110.228C3.76061 111.682 4.54017 113.44 6.01357 114.822L12.8568 107.531C13.159 107.814 13.0601 107.904 12.868 107.281C12.6931 106.714 12.5356 105.863 12.4427 104.706C12.2569 102.391 12.3746 99.4863 12.6562 96.5071C12.9341 93.566 13.3539 90.7307 13.7077 88.6175C13.8839 87.5652 14.0421 86.702 14.1552 86.1064C14.2117 85.8088 14.2569 85.5787 14.2874 85.4258C14.3026 85.3494 14.3141 85.2924 14.3215 85.2559C14.3252 85.2377 14.3279 85.2246 14.3295 85.2169C14.3303 85.213 14.3308 85.2105 14.3311 85.2093C14.3312 85.2086 14.3313 85.2084 14.3312 85.2085C14.3312 85.2085 14.3312 85.2088 14.3312 85.2088C14.3311 85.2092 14.331 85.2097 9.4352 84.1942ZM4.79478 0.644508C3.28736 4.40158 2.8608 8.54876 2.56963 12.2638C2.26135 16.197 2.09559 19.812 1.38655 23.5612L11.2124 25.4194C12.0526 20.9767 12.2627 16.5705 12.5391 13.0451C12.8325 9.30152 13.1992 6.55268 14.0756 4.36819L4.79478 0.644508ZM1.38655 23.5612C0.873598 26.2736 0.921704 29.8009 1.14686 33.1881C1.37981 36.6929 1.83867 40.502 2.33678 43.9832C2.83644 47.4754 3.38428 50.6973 3.80643 53.0432C4.0178 54.2177 4.19837 55.1765 4.32665 55.8445C4.39081 56.1786 4.44194 56.4402 4.47735 56.6198C4.49506 56.7097 4.50885 56.7791 4.51838 56.8269C4.52314 56.8508 4.52684 56.8692 4.52943 56.8822C4.53073 56.8886 4.53175 56.8937 4.53249 56.8974C4.53286 56.8992 4.53316 56.9007 4.53339 56.9018C4.5335 56.9024 4.53362 56.903 4.53367 56.9033C4.53377 56.9038 4.53386 56.9042 9.4352 55.9158C14.3365 54.9275 14.3366 54.9277 14.3366 54.9279C14.3366 54.9278 14.3366 54.9279 14.3366 54.9277C14.3365 54.9274 14.3364 54.9268 14.3362 54.9258C14.3358 54.9239 14.3351 54.9205 14.3342 54.9158C14.3323 54.9063 14.3293 54.8913 14.3252 54.871C14.3171 54.8304 14.3048 54.7683 14.2886 54.686C14.2561 54.5213 14.2081 54.2757 14.1472 53.9585C14.0253 53.3239 13.852 52.4036 13.6483 51.272C13.2405 49.0056 12.7139 45.9071 12.236 42.5669C11.7565 39.2158 11.3346 35.6805 11.1248 32.5249C10.9073 29.2519 10.9507 26.803 11.2124 25.4194L1.38655 23.5612Z" fill="black"/>
</svg>
