<svg width="79" height="76" viewBox="0 0 79 76" fill="none" xmlns="http://www.w3.org/2000/svg">
<path d="M73.5212 38.4536C73.5212 50.771 68.9696 59.2629 61.6873 64.4422C55.8497 68.5941 47.8094 70.942 37.9018 70.942C36.4847 70.942 35.3651 70.9585 34.3817 70.973C33.2952 70.9891 32.3749 71.0026 31.4032 70.9888C29.7711 70.9655 28.681 70.8551 27.6809 70.6008C25.6898 70.0945 23.2709 68.8304 17.8009 64.5716C12.6531 60.5636 9.59875 57.0281 7.74986 53.2158C5.89954 49.4005 5.03711 44.8563 5.03711 38.4536C5.03711 32.2044 5.21788 27.7577 6.15115 23.9629C7.03529 20.3679 8.63657 17.2218 11.8054 13.8053C17.5453 7.61662 26.5793 5.09717 37.9018 5.09717C46.9235 5.09717 59.1741 10.1518 66.7079 19.4635C70.8558 24.5903 73.5212 30.9363 73.5212 38.4536Z" fill="black" stroke="black" stroke-width="10"/>
</svg>
